<svg xmlns="http://www.w3.org/2000/svg" viewBox="0 0 32.562 15.182">
  <g id="back" transform="translate(0 -3.283)">
    <path id="Path_7" data-name="Path 7" d="M32.063,16.514H.5c-.275,0-.5-.156-.5-.348s.223-.348.5-.348H32.063c.275,0,.5.156.5.348S32.338,16.514,32.063,16.514Z" transform="translate(0 -5.235)"/>
    <path id="Path_8" data-name="Path 8" d="M7.592,18.465a.292.292,0,0,1-.206-.085l-7.3-7.3a.292.292,0,0,1,0-.412l7.3-7.3A.291.291,0,1,1,7.8,3.78L.7,10.872l7.1,7.1a.291.291,0,0,1-.206.5Z"/>
  </g>
</svg>
