<svg xmlns="http://www.w3.org/2000/svg" viewBox="0 0 11.622 11.622"><path d="M7.483,6a.257.257,0,0,1,0-.371l3.98-3.98a.573.573,0,0,0,.159-.371A.573.573,0,0,0,11.463.9L10.72.159A.573.573,0,0,0,10.349,0a.482.482,0,0,0-.371.159L6,4.139a.257.257,0,0,1-.371,0L1.645.159A.573.573,0,0,0,1.274,0,.573.573,0,0,0,.9.159L.159.9A.573.573,0,0,0,0,1.274a.573.573,0,0,0,.159.371l3.98,3.98a.257.257,0,0,1,0,.371L.159,9.977a.513.513,0,0,0,0,.743l.743.743a.573.573,0,0,0,.371.159.573.573,0,0,0,.371-.159l3.98-3.98a.257.257,0,0,1,.371,0l3.98,3.98a.513.513,0,0,0,.743,0l.743-.743a.513.513,0,0,0,0-.743Z"/></svg>