<svg xmlns="http://www.w3.org/2000/svg" viewBox="0 0 24.154 19.567"><defs><style>.a{fill:#3e3f43;}</style></defs><g transform="translate(0 -2.897)"><path class="a" d="M21.23,15.674l2.855-8.547A.829.829,0,0,0,24,6.307a1.286,1.286,0,0,0-1.023-.421l-16.138,0L6.414,3.839A1.135,1.135,0,0,0,5.261,2.9H.726c-.47,0-.726.22-.726.659v1.18c0,.425.255.536.743.536H4.572L7.5,17.714a2.836,2.836,0,0,0,1.957,4.718,2.989,2.989,0,0,0,2.652-2.119h5.708a2.8,2.8,0,0,0,2.651,2.151,2.745,2.745,0,0,0,2.674-2.751,2.569,2.569,0,0,0-2.659-2.764,2.6,2.6,0,0,0-2.013.99H11.459a2.222,2.222,0,0,0-1.907-1.065l-.1-.519h10.67C20.929,16.355,21.088,16.062,21.23,15.674Zm-.74,3a1.005,1.005,0,1,1-1.006,1.005A1.006,1.006,0,0,1,20.49,18.675ZM10.454,19.681a1.017,1.017,0,1,1-1.016-1.018A1.018,1.018,0,0,1,10.454,19.681Z"/></g></svg>