<svg xmlns="http://www.w3.org/2000/svg" viewBox="0 0 16.178 12.288">
  <defs>
    <style>
      .cls-1 {
        fill: #fff;
      }
    </style>
  </defs>
  <path id="message-closed-envelope_3_" data-name="message-closed-envelope (3)" class="cls-1" d="M14.258,45.945H1.92A1.885,1.885,0,0,0,0,47.789v8.6a1.885,1.885,0,0,0,1.92,1.844H14.258a1.885,1.885,0,0,0,1.92-1.844v-8.6A1.885,1.885,0,0,0,14.258,45.945Zm0,10.66H1.92c-.156,0-.292-.1-.292-.216V48.926l5.58,4.711a.636.636,0,0,0,.41.15H8.56a.636.636,0,0,0,.41-.15l5.58-4.711v7.463C14.55,56.5,14.413,56.6,14.258,56.6ZM8.089,52.17l-5.427-4.6H13.516Z" transform="translate(0 -45.945)"/>
</svg>
