<svg xmlns="http://www.w3.org/2000/svg" viewBox="0 0 16.004 16.004">
  <defs>
    <style>
      .cls-1 {
        opacity: 0.5;
      }

      .cls-2 {
        fill: #fff;
      }
    </style>
  </defs>
  <g id="facebook-logo_2_" data-name="facebook-logo (2)" class="cls-1">
    <path id="Facebook__x28_alt_x29_" class="cls-2" d="M16,2.668A2.765,2.765,0,0,0,13.337,0H2.667A2.765,2.765,0,0,0,0,2.668V13.337A2.765,2.765,0,0,0,2.668,16H8V9.958H6.046V7.291H8V6.252a3.282,3.282,0,0,1,3-3.406h2.156V5.513H11c-.236,0-.511.286-.511.716V7.291h2.667V9.958H10.492V16h2.845A2.765,2.765,0,0,0,16,13.337Z" transform="translate(0 0)"/>
  </g>
</svg>
