<svg xmlns="http://www.w3.org/2000/svg" viewBox="0 0 15.096 13.462">
  <defs>
    <style>
      .cls-1 {
        fill: #5d5d5d;
      }
    </style>
  </defs>
  <g id="web-page-home" transform="translate(0 -26.353)">
    <g id="Group_114" data-name="Group 114" transform="translate(0 26.353)">
      <path id="Path_23" data-name="Path 23" class="cls-1" d="M.521,34.37h1.23v4.918a.529.529,0,0,0,.527.527h3.6a.529.529,0,0,0,.527-.527v-3.6H8.6v3.6a.529.529,0,0,0,.527.527h3.425a.529.529,0,0,0,.527-.527V34.37h1.493a.525.525,0,0,0,.369-.9L8.075,26.509a.525.525,0,0,0-.738-.009L.161,33.465a.527.527,0,0,0-.123.58A.514.514,0,0,0,.521,34.37Zm7.167-6.745,5.621,5.691h-.755a.529.529,0,0,0-.527.527v4.918H9.655v-3.6a.529.529,0,0,0-.527-.527H5.879a.529.529,0,0,0-.527.527v3.6H2.805V33.843a.529.529,0,0,0-.527-.527H1.821Z" transform="translate(0 -26.353)"/>
    </g>
  </g>
</svg>
