<svg xmlns="http://www.w3.org/2000/svg" viewBox="0 0 10.246 13.661"><defs><style>.a{fill:#c8c8c8;}</style></defs><g transform="translate(-64)"><g transform="translate(64)"><path class="a" d="M73.961,5.123h-.854V3.985a3.985,3.985,0,1,0-7.969,0V5.123h-.854A.284.284,0,0,0,64,5.408v7.115a1.14,1.14,0,0,0,1.138,1.138h7.969a1.14,1.14,0,0,0,1.138-1.138V5.408A.284.284,0,0,0,73.961,5.123Zm-3.986,5.945a.285.285,0,0,1-.283.316H68.554a.285.285,0,0,1-.283-.316l.18-1.615a1.126,1.126,0,0,1-.466-.916,1.138,1.138,0,0,1,2.277,0,1.126,1.126,0,0,1-.466.916ZM71.4,5.123H66.846V3.985a2.277,2.277,0,1,1,4.554,0Z" transform="translate(-64)"/></g></g></svg>