<svg xmlns="http://www.w3.org/2000/svg" viewBox="0 0 13.882 13.851">
  <defs>
    <style>
      .cls-1 {
        fill: #fff;
      }
    </style>
  </defs>
  <g id="call-answer_2_" data-name="call-answer (2)" transform="translate(0 -0.394)">
    <g id="Group_8" data-name="Group 8" transform="translate(0 0.394)">
      <g id="Group_7" data-name="Group 7" transform="translate(0 0)">
        <path id="Path_4" data-name="Path 4" class="cls-1" d="M13.57,11.349,11.426,9.2a1.118,1.118,0,0,0-1.576.03l-1.08,1.08L8.557,10.2a10.748,10.748,0,0,1-2.6-1.879,10.808,10.808,0,0,1-1.883-2.6c-.04-.072-.078-.142-.116-.208l.725-.724.356-.357A1.117,1.117,0,0,0,5.07,2.849L2.927.7a1.117,1.117,0,0,0-1.576.03l-.6.608.017.016a3.494,3.494,0,0,0-.5.878,3.641,3.641,0,0,0-.222.891c-.283,2.347.789,4.492,3.7,7.4,4.023,4.023,7.265,3.719,7.4,3.7a3.622,3.622,0,0,0,.893-.224,3.482,3.482,0,0,0,.875-.5l.013.012.612-.6A1.119,1.119,0,0,0,13.57,11.349Z" transform="translate(0 -0.394)"/>
      </g>
    </g>
  </g>
</svg>
