<svg xmlns="http://www.w3.org/2000/svg" viewBox="0 0 15.331 15.331">
  <defs>
    <style>
      .cls-1 {
        fill: #3e3f43;
      }
    </style>
  </defs>
  <g id="search" transform="translate(-6 -0.003)">
    <path id="Path_3" data-name="Path 3" class="cls-1" d="M14.99,13.325l-3.16-3.16a6.31,6.31,0,0,0,1.143-3.676,6.371,6.371,0,0,0-.512-2.52A6.352,6.352,0,0,0,9.006.514a6.464,6.464,0,0,0-5.04,0A6.352,6.352,0,0,0,.511,3.969a6.464,6.464,0,0,0,0,5.04,6.353,6.353,0,0,0,3.455,3.455,6.374,6.374,0,0,0,2.52.511,6.31,6.31,0,0,0,3.676-1.142l3.16,3.151a1.094,1.094,0,0,0,.829.35,1.179,1.179,0,0,0,.838-2.008ZM9.4,9.4a3.975,3.975,0,0,1-2.916,1.212A3.975,3.975,0,0,1,3.57,9.4,3.975,3.975,0,0,1,2.359,6.489,3.975,3.975,0,0,1,3.57,3.573,3.975,3.975,0,0,1,6.486,2.362,3.976,3.976,0,0,1,9.4,3.573a3.975,3.975,0,0,1,1.212,2.916A3.975,3.975,0,0,1,9.4,9.4Z" transform="translate(6 0)"/>
  </g>
</svg>
