<svg xmlns="http://www.w3.org/2000/svg" viewBox="0 0 19.568 15.895">
  <defs>
    <style>
      .cls-1 {
        opacity: 0.5;
      }

      .cls-2 {
        fill: #fff;
      }
    </style>
  </defs>
  <g id="twitter-logo-silhouette_2_" data-name="twitter-logo-silhouette (2)" class="cls-1" transform="translate(-0.001 -57.441)">
    <g id="Group_11" data-name="Group 11" transform="translate(0.001 57.441)">
      <path id="Path_6" data-name="Path 6" class="cls-2" d="M19.569,59.322a8.016,8.016,0,0,1-2.3.632,4.031,4.031,0,0,0,1.764-2.219,8.092,8.092,0,0,1-2.551.975,4.017,4.017,0,0,0-6.84,3.66,11.4,11.4,0,0,1-8.273-4.194,4.019,4.019,0,0,0,1.242,5.358,4.014,4.014,0,0,1-1.818-.5v.05a4.018,4.018,0,0,0,3.219,3.936,4.066,4.066,0,0,1-1.058.141,3.853,3.853,0,0,1-.756-.075,4.016,4.016,0,0,0,3.749,2.788A8.054,8.054,0,0,1,.958,71.584,8.532,8.532,0,0,1,0,71.529a11.347,11.347,0,0,0,6.153,1.806,11.342,11.342,0,0,0,11.42-11.42l-.013-.52A8.016,8.016,0,0,0,19.569,59.322Z" transform="translate(-0.001 -57.441)"/>
    </g>
  </g>
</svg>
