<svg xmlns="http://www.w3.org/2000/svg" viewBox="0 0 19.281 19.28">
  <defs>
    <style>
      .cls-1 {
        fill: #3e3f43;
      }
    </style>
  </defs>
  <g id="user_5_" data-name="user (5)" transform="translate(0 -0.001)">
    <path id="Path_9" data-name="Path 9" class="cls-1" d="M9.64,0a9.64,9.64,0,1,0,9.64,9.64A9.641,9.641,0,0,0,9.64,0Zm0,2.882A3.189,3.189,0,1,1,6.452,6.072,3.189,3.189,0,0,1,9.64,2.883Zm0,13.877a7.075,7.075,0,0,1-4.607-1.7,1.359,1.359,0,0,1-.477-1.033,3.216,3.216,0,0,1,3.231-3.215H11.5a3.211,3.211,0,0,1,3.226,3.215,1.355,1.355,0,0,1-.476,1.032A7.073,7.073,0,0,1,9.638,16.761Z" transform="translate(0 0)"/>
  </g>
</svg>
