<svg xmlns="http://www.w3.org/2000/svg" viewBox="0 0 35.995 35.996"><defs><style>.a{fill:#3e3f43;}</style></defs><g transform="translate(0)"><path class="a" d="M103.284,96.193a4.927,4.927,0,1,0,4.926,4.927A4.927,4.927,0,0,0,103.284,96.193Zm2.381,6.093h-1.447v1.447a.934.934,0,0,1-1.867,0v-1.447H100.9a.934.934,0,0,1,0-1.867h1.447V98.971a.934.934,0,1,1,1.867,0v1.447h1.447a.934.934,0,0,1,0,1.867Z" transform="translate(-86.557 -84.651)"/><path class="a" d="M18,0A18,18,0,1,0,36,18,18,18,0,0,0,18,0ZM27.05,26.547a1.457,1.457,0,0,1-2.062,0l-4.1-4.1A7.291,7.291,0,1,1,22.9,20.339l4.147,4.147A1.457,1.457,0,0,1,27.05,26.547Z" transform="translate(-0.001)"/></g></svg>